<svg viewBox="-70 20 483 372" fill="none" xmlns="http://www.w3.org/2000/svg">
    <path d="M409.82 61.2429L410.428 61.3651C409.763 62.1869 376.14 82.1225 371.12 85.2662C359.619 92.4694 348.387 100.033 336.99 107.389C315.16 121.479 293.192 135.525 271.861 150.357C268.539 152.665 256.248 160.454 255.809 164.119C255.726 164.791 255.995 164.994 256.361 165.495C265.151 170.601 348.772 130.291 360.895 124.609L384.991 113.504C387.971 112.11 405.015 103.578 406.725 103.73C406.167 104.35 388.712 115.049 386.098 116.84L311.775 167.759C296.078 178.374 279.932 188.465 264.694 199.733C262.134 201.629 256.025 205.829 254.82 208.549C254.448 209.387 254.478 209.664 254.744 210.482C255.111 210.76 255.487 210.972 255.948 211.055C264.862 212.671 298.682 196.349 307.785 192.233C312.898 189.923 320.838 187.094 325.166 183.818C325.012 184.142 324.855 184.621 324.647 184.9C324.048 185.696 280.325 213.605 277.416 214.868C276.923 215.64 212.243 257.027 205.523 261.093C202.466 262.972 199.304 264.655 196.038 266.141C181.915 272.445 165.287 272.45 150.902 266.954C150.442 266.779 149.985 266.599 149.531 266.413C149.074 266.227 148.622 266.036 148.174 265.839C147.723 265.642 147.275 265.44 146.83 265.231C146.386 265.023 145.942 264.809 145.501 264.59C145.062 264.371 144.625 264.147 144.189 263.916C143.756 263.686 143.325 263.451 142.895 263.21C142.468 262.969 142.042 262.723 141.619 262.472C141.197 262.221 140.779 261.964 140.364 261.702C139.948 261.441 139.536 261.174 139.126 260.902C138.717 260.63 138.31 260.353 137.906 260.071C137.505 259.788 137.107 259.501 136.712 259.209C136.316 258.917 135.925 258.621 135.538 258.319C135.151 258.017 134.767 257.711 134.386 257.4C134.005 257.088 133.629 256.772 133.259 256.452C132.886 256.131 132.518 255.806 132.153 255.476C131.789 255.146 131.429 254.812 131.073 254.473C130.719 254.135 130.368 253.792 130.02 253.444C129.673 253.097 129.33 252.745 128.993 252.389C128.654 252.033 128.319 251.673 127.991 251.308C127.662 250.944 127.337 250.576 127.017 250.204C126.696 249.832 126.38 249.455 126.068 249.075C125.758 248.695 125.453 248.311 125.151 247.923C124.85 247.535 124.554 247.144 124.263 246.749C123.972 246.354 123.686 245.955 123.403 245.552C123.123 245.15 122.847 244.745 122.575 244.335C122.304 243.926 122.037 243.514 121.776 243.098C121.515 242.682 121.259 242.264 121.009 241.841C120.758 241.419 120.513 240.994 120.273 240.566C120.034 240.138 119.799 239.707 119.57 239.273C119.341 238.839 119.117 238.402 118.899 237.962C118.68 237.523 118.467 237.08 118.259 236.635C118.051 236.191 117.85 235.743 117.655 235.294C111.463 221.342 111.436 204.146 116.924 189.969C121.128 179.112 128.207 170.252 137.616 163.402C144.476 158.411 152.234 155.401 159.967 152.053L180.715 142.986L262.011 107.09C259.697 109.552 254.799 111.922 251.855 113.866C245.639 117.971 211.514 140.182 210.417 145.258C210.359 145.526 210.588 145.742 210.725 145.968C210.905 146.025 210.92 146.033 211.127 146.078C214.098 146.71 222.394 143.631 225.268 142.588C242.707 136.268 259.713 128.38 276.63 120.801L354.688 85.6406C366.872 80.3872 379.03 75.0695 391.16 69.6873C397.038 67.1354 404.526 64.5667 409.82 61.2429Z" fill="url(#paint0_linear_23672_306)"/>
    <path d="M166.034 183.003C167.887 183.006 169.342 183.219 170.705 184.603C171.753 185.668 172.316 187.167 172.296 188.664C172.295 188.846 172.286 189.027 172.268 189.208C172.247 189.388 172.219 189.568 172.184 189.746C172.146 189.924 172.1 190.099 172.046 190.273C171.991 190.446 171.928 190.616 171.856 190.783C171.785 190.95 171.705 191.113 171.617 191.272C171.531 191.43 171.435 191.584 171.331 191.733C171.228 191.882 171.119 192.026 171.002 192.163C170.883 192.301 170.759 192.432 170.628 192.557C169.407 193.725 168.299 193.993 166.66 193.967C165.938 193.889 165.269 193.693 164.607 193.395C163.277 192.796 162.163 191.558 161.681 190.17C161.621 190.003 161.571 189.833 161.529 189.66C161.489 189.488 161.457 189.314 161.433 189.139C161.409 188.963 161.393 188.786 161.386 188.609C161.379 188.432 161.381 188.254 161.391 188.077C161.402 187.9 161.422 187.724 161.452 187.549C161.479 187.374 161.516 187.2 161.56 187.029C161.607 186.857 161.662 186.689 161.723 186.522C161.787 186.357 161.859 186.195 161.937 186.036C162.834 184.265 164.242 183.594 166.034 183.003Z" fill="#897FF5"/>
    <path d="M177.055 240.439C178.702 240.345 180.024 240.435 181.425 241.365C181.581 241.468 181.731 241.579 181.876 241.697C182.022 241.815 182.16 241.94 182.292 242.071C182.427 242.203 182.552 242.34 182.669 242.484C182.788 242.627 182.899 242.776 183.002 242.93C183.106 243.084 183.201 243.243 183.286 243.406C183.374 243.569 183.453 243.736 183.521 243.907C183.591 244.078 183.652 244.251 183.703 244.428C183.756 244.605 183.799 244.783 183.832 244.964C184.083 246.351 183.798 247.751 182.939 248.893C181.926 250.243 180.494 250.954 178.819 251.18C178.178 251.439 177.45 251.328 176.791 251.178C175.512 250.886 174.53 250.241 173.846 249.128C172.936 247.641 172.757 245.83 173.253 244.183C173.865 242.164 175.222 241.369 177.055 240.439Z" fill="#897FF5"/>
    <path d="M147.36 206.763C149.903 206.612 152.113 206.851 154.216 208.337C154.333 208.419 154.447 208.503 154.558 208.59C154.672 208.677 154.782 208.767 154.89 208.859C154.996 208.951 155.099 209.046 155.202 209.143C155.304 209.24 155.403 209.339 155.5 209.44C155.597 209.542 155.69 209.646 155.781 209.752C155.872 209.858 155.96 209.967 156.046 210.077C156.131 210.187 156.213 210.299 156.293 210.413C156.373 210.528 156.45 210.644 156.524 210.761C156.595 210.879 156.664 210.998 156.73 211.119C156.796 211.24 156.859 211.362 156.919 211.486C156.979 211.61 157.036 211.735 157.088 211.861C157.143 211.988 157.192 212.115 157.236 212.244C157.283 212.373 157.325 212.502 157.364 212.633C157.402 212.763 157.438 212.895 157.471 213.027C157.501 213.159 157.529 213.292 157.554 213.426C157.579 213.559 157.6 213.693 157.617 213.828C157.875 215.839 157.306 217.943 155.951 219.523C154.326 221.412 152.218 222.143 149.698 222.362C148.483 222.677 146.37 222.205 145.212 221.739C143.363 220.994 142.061 219.643 141.315 217.912C140.415 215.828 140.376 213.388 141.357 211.34C142.639 208.665 144.517 207.751 147.36 206.763Z" fill="#897FF5"/>
    <path d="M239.162 221.061C236.972 217.799 232.5 216.875 229.197 218.989L216.001 227.6C212.691 229.761 208.179 228.843 205.976 225.561C205.976 225.561 205.963 225.538 205.955 225.527C205.475 224.869 205.072 224.127 204.925 223.539C204.678 222.636 204.594 221.181 204.771 220.309C204.938 219.49 205.448 218.315 205.882 217.763C205.898 217.744 205.924 217.719 205.944 217.696C206.464 216.909 207.145 216.214 207.986 215.665L227.519 202.918C228.071 202.547 228.637 202.17 229.23 201.783L245.564 191.119C248.875 188.958 249.781 184.505 247.577 181.223C245.374 177.941 240.862 177.023 237.552 179.184L210.442 196.876C210.39 196.91 210.341 196.95 210.29 196.987C210.271 196.996 210.252 197 210.233 197.008L208.851 197.91C205.54 200.071 201.029 199.153 198.825 195.871C196.622 192.589 197.528 188.136 200.838 185.975L211.971 178.71C212 178.689 212.025 178.669 212.054 178.647L215.496 176.401C216.335 175.854 217.019 175.157 217.539 174.37C217.561 174.347 217.584 174.322 217.601 174.303C218.037 173.751 218.545 172.576 218.711 171.757C218.888 170.888 218.807 169.431 218.558 168.527C218.411 167.94 218.007 167.197 217.528 166.539C217.52 166.528 217.515 166.517 217.507 166.505C215.303 163.223 210.792 162.305 207.481 164.466L184.953 179.168C184.919 179.188 184.89 179.205 184.856 179.225L183.053 180.402C179.742 182.562 175.231 181.645 173.027 178.362C170.824 175.08 171.73 170.627 175.04 168.467L175.769 167.972C179.08 165.812 179.985 161.359 177.782 158.077C175.579 154.795 171.067 153.877 167.757 156.038L165.916 157.239L155.374 164.044C152.447 165.935 149.524 167.872 147.017 169.573L144.381 171.293C144.036 171.518 143.726 171.772 143.436 172.041C141.872 173.141 140.71 173.992 140.193 174.44C138.638 175.722 136.207 178.106 134.795 179.738C133.333 181.359 131.297 183.928 130.228 185.472C129.16 187.013 127.488 189.924 126.489 191.907C125.544 193.901 124.099 197.816 123.37 200.6C122.539 203.63 121.924 207.446 121.807 210.141C121.629 212.611 121.708 216.197 121.905 218.155C122.1 220.113 122.825 223.725 123.508 226.21C124.191 228.695 125.536 232.433 126.561 234.559C127.585 236.686 129.296 239.701 130.435 241.263C131.523 242.817 133.242 244.978 134.207 246.079C135.171 247.181 137.108 249.068 138.476 250.305C139.844 251.543 142.28 253.369 143.847 254.436C145.412 255.5 148.76 257.354 151.218 258.547C154.807 260.289 157.14 261.029 162.014 262.021C166.888 263.012 169.325 263.24 173.255 263.029C176.035 262.902 179.956 262.474 181.979 262.085C184.002 261.696 187.322 260.773 189.417 260.026C191.513 259.279 194.522 258.025 196.193 257.247C197.822 256.405 208.22 249.886 219.251 242.643L237.154 230.96C237.154 230.96 237.173 230.939 237.185 230.931C240.467 228.763 241.36 224.332 239.165 221.062L239.162 221.061Z" fill="white"/>
    <path d="M136.534 221.829C136.311 222.328 136.11 222.836 135.93 223.352C135.358 225.025 135.554 226.937 136.339 228.509C136.816 229.466 137.564 230.444 138.594 230.795L139.053 230.502C139.885 228.022 137.705 226.667 137.967 224.516C138.117 223.293 138.95 222.474 139.823 221.708L140.083 221.482C142.783 221.346 144.129 222.825 146.539 223.566L147.007 223.211C146.984 222.386 146.72 221.851 146.185 221.226C145.217 220.094 143.745 219.327 142.254 219.245C139.885 219.115 138.215 220.3 136.534 221.829Z" fill="#050826"/>
    <path d="M154.661 206.488C154.172 207.537 153.681 208.57 153.68 209.752C153.678 211.581 153.797 214.259 155.171 215.633C155.929 215.894 156.02 215.915 156.786 215.709C157.477 214.246 156.094 211.388 156.368 209.607C156.568 208.3 157.334 207.562 158.324 206.795L158.597 206.587C161.035 206.123 162.797 207.493 164.999 208.315C165.586 208.012 165.614 207.962 165.924 207.379C165.834 206.859 165.703 206.574 165.336 206.177C164.028 204.758 162.054 203.747 160.104 203.707C157.776 203.66 156.214 204.952 154.661 206.488Z" fill="#050826"/>
    <path d="M150.698 236.546C150.283 237.319 149.896 238.192 149.697 239.05C149.319 240.676 149.735 242.659 150.619 244.064C152.098 246.415 154.909 247.813 157.542 248.43C162.238 249.529 167.309 248.434 171.332 245.894C176.456 242.66 179.115 238.27 180.382 232.488C180.4 232.19 180.414 231.893 180.424 231.596C180.543 227.936 179.688 224.19 177.062 221.481C175.925 220.308 174.558 219.312 172.845 219.35C168.703 219.443 166.244 226.142 163.388 228.57C159.469 231.901 154.444 232.731 150.698 236.546Z" fill="#050826"/>
    <circle cx="169.079" cy="203.552" r="100.134" fill="#B5A3FF" fill-opacity="0.1"/>
    <circle cx="169.079" cy="203.552" r="99.634" stroke="white" stroke-opacity="0.8"/>
    <ellipse cx="168.258" cy="201.91" rx="133.238" ry="132.965" fill="#5731EE" fill-opacity="0.05"/>
    <path d="M168.258 69.4449C241.568 69.4449 300.996 128.752 300.996 201.91C300.996 275.067 241.568 334.375 168.258 334.375C94.9476 334.375 35.5197 275.067 35.5197 201.91C35.5197 128.753 94.9476 69.445 168.258 69.4449Z" stroke="white" stroke-opacity="0.5"/>
    <circle cx="169.352" cy="202.184" r="168.852" stroke="white" stroke-opacity="0.3"/>
    <path d="M21.1019 144.633C21.504 144.741 21.4717 145.188 21.7612 145.424C21.944 145.573 22.233 145.567 22.4101 145.731C22.4865 145.802 22.4868 145.842 22.4943 145.941C22.3896 146.21 21.9692 146.355 21.7527 146.537C21.6528 146.809 21.6109 147.145 21.4402 147.377C21.3855 147.373 21.327 147.37 21.2735 147.356C21.1134 147.316 20.9027 146.717 20.8065 146.554C20.5908 146.433 20.3016 146.4 20.1116 146.239C20.0333 146.172 20.0221 146.135 20.0084 146.037C20.0917 145.749 20.5032 145.698 20.684 145.488C20.8914 145.246 20.8696 144.876 21.1019 144.633Z" fill="#F9F9FA"/>
    <path d="M288.425 206.287C288.978 206.717 288.969 208.721 290.259 209.716C291.013 210.297 291.92 210.361 292.704 210.822C292.716 210.83 292.729 210.838 292.742 210.845C292.445 211.202 291.537 211.441 291.102 211.673C289.453 212.552 289.024 213.865 288.48 215.589C288.288 214.985 288.1 214.37 287.858 213.786C287.071 211.891 285.645 211.515 283.987 210.822C284.677 210.583 285.412 210.367 286.065 210.027C287.544 209.257 287.932 207.808 288.425 206.287Z" fill="#FBCF3B"/>
    <path d="M107.197 279.934C107.742 279.887 108.331 279.887 108.871 279.994C109.656 280.149 110.498 280.839 110.903 281.543C111.298 282.229 111.419 282.943 111.216 283.725C110.934 284.812 110.26 285.252 109.396 285.802C108.883 285.882 108.382 285.95 107.865 285.875C107.029 285.756 106.289 285.308 105.801 284.589C105.363 283.943 105.244 283.128 105.394 282.358C105.627 281.168 106.3 280.593 107.197 279.934Z" fill="white"/>
    <path d="M294.865 236.853C295.41 236.806 295.999 236.806 296.539 236.913C297.323 237.068 298.166 237.758 298.571 238.462C298.966 239.148 299.087 239.862 298.884 240.643C298.602 241.73 297.928 242.171 297.064 242.721C296.551 242.801 296.05 242.868 295.533 242.794C294.697 242.675 293.957 242.227 293.469 241.508C293.031 240.862 292.912 240.047 293.062 239.277C293.295 238.087 293.968 237.512 294.865 236.853Z" fill="#CCCCCC"/>
    <path d="M35.4774 220.818C36.0233 220.771 36.6117 220.771 37.1516 220.877C37.9364 221.032 38.7791 221.723 39.184 222.427C39.5792 223.113 39.7003 223.827 39.4973 224.608C39.2149 225.695 38.5407 226.136 37.6771 226.686C37.1638 226.766 36.6632 226.833 36.1456 226.759C35.3101 226.64 34.5703 226.192 34.0823 225.472C33.6441 224.827 33.5245 224.011 33.675 223.242C33.9078 222.051 34.5807 221.477 35.4774 220.818Z" fill="#CCCCCC"/>
    <path d="M263.109 338.093C263.655 338.046 264.243 338.046 264.783 338.153C265.568 338.308 266.41 338.998 266.815 339.702C267.211 340.388 267.332 341.102 267.129 341.883C266.846 342.97 266.172 343.411 265.308 343.961C264.795 344.041 264.294 344.108 263.777 344.034C262.941 343.915 262.202 343.467 261.714 342.748C261.275 342.102 261.156 341.287 261.306 340.517C261.539 339.327 262.212 338.752 263.109 338.093Z" fill="#6B6B6B"/>
    <defs>
        <linearGradient id="paint0_linear_23672_306" x1="110.965" y1="236.366" x2="403.022" y2="240.569" gradientUnits="userSpaceOnUse">
            <stop stop-color="#3D12E6"/>
            <stop offset="1" stop-color="#5A30FF"/>
        </linearGradient>
    </defs>
</svg>