<svg xmlns="http://www.w3.org/2000/svg" xml:space="preserve" viewBox="5 5 50 50" fill="currentColor">
    <path d="M28 45.868v5.131c0 1.65-1.35 3-3 3s-3-1.35-3-3v-5.131zM38 45.868v5.131c0 1.65-1.35 3-3 3s-3-1.35-3-3v-5.131z"/>
    <path d="M43 26.999v16c0 2.21-1.79 4-4 4H21c-2.21 0-4-1.79-4-4v-16c0-2.21 1.79-4 4-4h18c2.21 0 4 1.79 4 4M39.83 7.549l-2.658 4q-.855-.54-1.8-.9l2.798-4.2c.3-.46.92-.59 1.38-.28.46.3.59.92.28 1.38M24.626 10.73q-.945.36-1.8.9L20.17 7.549a.99.99 0 0 1 .28-1.38.99.99 0 0 1 1.38.28zM51 28.999v8c0 1.65-1.35 3-3 3s-3-1.35-3-3v-8c0-1.65 1.35-3 3-3s3 1.35 3 3M15 28.999v8c0 1.65-1.35 3-3 3s-3-1.35-3-3v-8c0-1.65 1.35-3 3-3s3 1.35 3 3"/>
    <path d="M37.79 10.649q-.855-.54-1.8-.9c-1.23-.49-2.58-.75-3.99-.75h-4c-1.41 0-2.76.26-3.99.75q-.945.36-1.8.9a10.98 10.98 0 0 0-5.21 9.35c0 .55.45 1 1 1h24c.55 0 1-.45 1-1 0-3.95-2.08-7.41-5.21-9.35M27 15.999h-1c-.55 0-1-.45-1-1s.45-1 1-1h1c.55 0 1 .45 1 1s-.45 1-1 1m7 0h-1c-.55 0-1-.45-1-1s.45-1 1-1h1c.55 0 1 .45 1 1s-.45 1-1 1"/>
</svg>