<svg xmlns="http://www.w3.org/2000/svg" fill="currentColor" xml:space="preserve" fill-rule="evenodd" stroke-linejoin="round" stroke-miterlimit="2" clip-rule="evenodd" viewBox="5 5 90 90">
    <path d="M36.842 18.75H25.015a9.375 9.375 0 0 0-9.375 9.375v12.5c0 1.173.647 2.195 1.603 2.73a3.12 3.12 0 0 0 1.929.667h4.62a6.117 6.117 0 0 1 6.114 6.114 6.117 6.117 0 0 1-6.114 6.114h-5.027a3.126 3.126 0 0 0-3.125 3.125v13.859a9.375 9.375 0 0 0 9.375 9.375h11.891c.68 6.486 6.172 11.549 12.837 11.549S61.9 89.095 62.58 82.609H75a9.375 9.375 0 0 0 9.375-9.375V59.375c0-1.537-1.792-3.125-3.329-3.125h-4.619a6.12 6.12 0 0 1-6.115-6.114 6.117 6.117 0 0 1 6.115-6.114h4.619a3.13 3.13 0 0 0 2.6-1.391 3.1 3.1 0 0 0 .729-2.006V28.053a9.38 9.38 0 0 0-9.419-9.375l-12.312.057C62.421 11.807 56.726 6.25 49.743 6.25c-6.988 0-12.686 5.565-12.901 12.5m22.253 6.252c-1.362.08-2.694-1.144-2.694-2.509v-3.335a6.66 6.66 0 0 0-6.658-6.658 6.66 6.66 0 0 0-6.658 6.658v2.717c0 1.725-1.4 3.125-3.125 3.125H25.015a3.125 3.125 0 0 0-3.125 3.125v9.647h1.902c6.824 0 12.364 5.54 12.364 12.364S30.616 62.5 23.792 62.5H21.89v10.734a3.125 3.125 0 0 0 3.125 3.125H39.96c1.725 0 3.125 1.4 3.125 3.125v1.766a6.66 6.66 0 0 0 6.658 6.658 6.66 6.66 0 0 0 6.658-6.658v-1.766c0-1.725 1.249-3.125 2.974-3.125H75a3.125 3.125 0 0 0 3.125-3.125V62.5h-1.698c-6.824 0-12.365-5.54-12.365-12.364s5.541-12.364 12.365-12.364h1.698v-9.719a3.124 3.124 0 0 0-3.14-3.125z"/>
</svg>