<svg width="32" height="32" fill="none" xmlns="http://www.w3.org/2000/svg">
    <circle cx="16" cy="16" r="16" fill="#111618"/>
    <g clip-path="url(#clip0000000003)">
        <path d="m20.84 8.84-3.34 4.94a.35.35 0 0 0 .06.46.36.36 0 0 0 .47 0l3.29-2.84a.13.13 0 0 1 .2.03l.02.07v8.88a.13.13 0 0 1-.09.13.14.14 0 0 1-.15-.04L11.35 8.64a1.7 1.7 0 0 0-1.3-.6H9.7A1.71 1.71 0 0 0 8 9.74v12.5a1.69 1.69 0 0 0 1.7 1.69 1.72 1.72 0 0 0 1.46-.8l3.34-4.94a.35.35 0 0 0-.06-.46.36.36 0 0 0-.47 0l-3.29 2.83a.13.13 0 0 1-.14.02.13.13 0 0 1-.08-.12v-8.88a.13.13 0 0 1 .09-.12.14.14 0 0 1 .15.04l9.95 11.83a1.7 1.7 0 0 0 1.3.6h.34a1.71 1.71 0 0 0 1.58-1.05c.09-.2.13-.42.13-.64V9.74a1.69 1.69 0 0 0-1.7-1.7 1.71 1.71 0 0 0-1.46.8Z" fill="#fff"/>
    </g>
    <defs>
        <clipPath id="clip00033">
            <path fill="#fff" transform="translate(8 7.98)" d="M0 0h16v16H0z"/>
        </clipPath>
    </defs>
</svg>
